<?xml version="1.0" encoding="UTF-8"?>
<svg id="_レイヤー_1" data-name="レイヤー 1" xmlns="http://www.w3.org/2000/svg" viewBox="0 0 856 240">
  <defs>
    <style>
      .cls-1 {
        fill: #231815;
      }
    </style>
  </defs>
  <g id="black">
    <g id="company">
      <path class="cls-1" d="m338.68,51.62l-8.2,66.36c4.61-3.45,8.62-5.76,12.01-6.92,3.55-1.22,7.4-1.83,11.54-1.83,10.18,0,18.59,3.5,25.22,10.5,6.63,6.95,9.95,15.8,9.95,26.57,0,11.83-3.77,21.67-11.3,29.52-7.59,7.96-16.84,11.93-27.77,11.93-10.18,0-19.1-3.93-26.73-11.78l-1.27,10.03h-17.58l16.55-134.38h17.58Zm32.86,95.08c0-6.68-1.99-12.15-5.97-16.39-3.98-4.24-9.15-6.36-15.51-6.36-6.9,0-12.6,2.54-17.11,7.63-4.51,4.99-6.76,11.43-6.76,19.33,0,6.63,1.94,11.96,5.81,15.99,3.87,4.14,8.91,6.21,15.12,6.21,6.84,0,12.6-2.57,17.27-7.72,4.77-5.15,7.16-11.38,7.16-18.7Z"/>
      <path class="cls-1" d="m429.21,111.05l-9.23,74.95h-17.58l9.23-74.95h17.58Zm5.49-35.64c0,2.55-.93,4.75-2.78,6.6-1.86,1.86-4.08,2.78-6.68,2.78s-4.85-.95-6.76-2.86c-1.86-2.02-2.78-4.32-2.78-6.92s.9-4.8,2.71-6.6,4.06-2.78,6.6-2.78,4.85.98,6.76,2.94c1.96,1.91,2.94,4.19,2.94,6.84Z"/>
      <path class="cls-1" d="m473.58,127.36l-7.24,58.64h-17.58l7.24-58.64h-9.95l1.99-16.31h9.95l4.3-34.77h17.58l-4.3,34.77h16.23l-1.99,16.31h-16.23Z"/>
      <path class="cls-1" d="m532.52,51.62l-8.2,66.36c4.61-3.45,8.62-5.76,12.01-6.92,3.55-1.22,7.4-1.83,11.54-1.83,10.18,0,18.59,3.5,25.22,10.5,6.63,6.95,9.95,15.8,9.95,26.57,0,11.83-3.77,21.67-11.3,29.52-7.59,7.96-16.84,11.93-27.77,11.93-10.18,0-19.1-3.93-26.73-11.78l-1.27,10.03h-17.58l16.55-134.38h17.58Zm32.86,95.08c0-6.68-1.99-12.15-5.97-16.39-3.98-4.24-9.15-6.36-15.51-6.36-6.9,0-12.6,2.54-17.11,7.63-4.51,4.99-6.76,11.43-6.76,19.33,0,6.63,1.94,11.96,5.81,15.99,3.87,4.14,8.91,6.21,15.12,6.21,6.84,0,12.6-2.57,17.27-7.72,4.77-5.15,7.16-11.38,7.16-18.7Z"/>
      <path class="cls-1" d="m678.06,147.81c0,11.46-3.98,21.08-11.93,28.88-7.9,7.8-17.66,11.7-29.28,11.7s-22.07-3.69-29.76-11.06c-7.74-7.43-11.62-16.81-11.62-28.17s4-21.27,12.01-28.96c8.06-7.74,18.14-11.62,30.23-11.62s21.56,3.66,29.04,10.98c7.53,7.21,11.3,16.63,11.3,28.24Zm-17.74-.88c0-7.21-2.1-12.92-6.29-17.11-4.19-4.35-9.68-6.52-16.47-6.52s-12.89,2.41-17.5,7.24c-4.61,4.88-6.92,11.01-6.92,18.38s2.17,13.39,6.52,17.9c4.35,4.61,9.97,6.92,16.87,6.92s12.57-2.52,17.03-7.56c4.51-4.99,6.76-11.4,6.76-19.25Z"/>
      <path class="cls-1" d="m734.34,145.74l26.97,40.26h-20.37l-17.74-28.48-24.19,28.48h-22.68l38.03-41.69-22.36-33.25h20.13l13.29,21.48,17.9-21.48h22.44l-31.43,34.69Z"/>
      <path class="cls-1" d="m824.57,145.74l26.97,40.26h-20.37l-17.74-28.48-24.19,28.48h-22.68l38.03-41.69-22.36-33.25h20.13l13.29,21.48,17.9-21.48h22.44l-31.43,34.69Z"/>
    </g>
    <g id="logo">
      <path class="cls-1" d="m240,240H0V0h240v240Zm-226.46-13.54h212.92V13.54H13.54v212.92Z"/>
      <g>
        <path class="cls-1" d="m85.61,92.07l-6.37,54.13h-11.72l-6.53-54.13v-29.43h24.63v29.43Zm-.63,63.42v22.74h-23.45v-22.74h23.45Z"/>
        <path class="cls-1" d="m158.16,135.43c-.63,1.99-.97,5.08-1.02,9.28h-21.25c.31-8.86,1.16-14.99,2.52-18.37,1.36-3.39,4.88-7.28,10.54-11.69l5.74-4.49c1.89-1.41,3.41-2.96,4.56-4.64,2.1-2.89,3.14-6.06,3.14-9.52,0-3.98-1.16-7.62-3.5-10.89s-6.6-4.92-12.79-4.92-10.4,2.02-12.94,6.06-3.82,8.23-3.82,12.59h-22.74c.63-14.95,5.85-25.54,15.66-31.79,6.19-3.99,13.79-5.98,22.82-5.98,11.86,0,21.7,2.83,29.55,8.5,7.84,5.67,11.76,14.06,11.76,25.18,0,6.82-1.71,12.56-5.11,17.23-1.99,2.83-5.82,6.45-11.49,10.86l-5.59,4.33c-3.04,2.36-5.06,5.12-6.06,8.27Zm.63,42.8h-23.45v-22.74h23.45v22.74Z"/>
      </g>
    </g>
  </g>
</svg>